<?xml version="1.0" encoding="UTF-8"?>
<COLLADA xmlns="http://www.collada.org/2005/11/COLLADASchema" version="1.4.1">
<!--
# File generated by ImageToStl.com - Free Image and 3D model conversion tools
-->
  <asset>
    <contributor>
      <author>ImageToStl.com</author>
      <authoring_tool>ImageToStl.com</authoring_tool>
    </contributor>
    <created>2026-03-06T09:42:01</created>
    <modified>2026-03-06T09:42:01</modified>
    <up_axis>Z_UP</up_axis>
  </asset>
  <library_effects>
    <effect id="effect_0">
        <profile_COMMON>
          <technique sid="common">
            <phong>
              <diffuse>
                <color>0.62745 0.62745 0.62745 1</color>
              </diffuse>
            </phong>
          </technique>
        </profile_COMMON>
    </effect>
    <effect id="effect_1">
        <profile_COMMON>
          <technique sid="common">
            <phong>
              <diffuse>
                <color>0.59608 0.59608 0.59608 1</color>
              </diffuse>
            </phong>
          </technique>
        </profile_COMMON>
    </effect>
  </library_effects>
  <library_materials>
    <material id="mat_0">
      <instance_effect url="#effect_0"/>
    </material>
    <material id="mat_1">
      <instance_effect url="#effect_1"/>
    </material>
  </library_materials>
  <library_geometries>
    <geometry id="geometry_45178561_d814_4e10_83a9_18077fb16ba7">
      <mesh>
        <source id="pos_0">
          <float_array id="pos_0-array" count="1221">-36.44475174 19.42858696 -157.27999878 -34.5491066 22.62850189 -157.27999878 36.44475174 19.42858696 -157.27999878 -32.37327576 25.64490318 -157.27999878 -29.93490028 28.45332527 -157.27999878 -27.25375748 31.03099632 -157.27999878 -24.3515892 33.35700989 -157.27999878 -21.25193214 35.41250229 -157.27999878 -17.97992706 37.18080521 -157.27999878 -14.56210613 38.64757538 -157.27999878 -11.0261879 39.80091858 -157.27999878 -7.40084934 40.63148499 -157.27999878 -3.71549082 41.13253021 -157.27999878 -0 41.29999924 -157.27999878 3.71549082 41.13253021 -157.27999878 7.40084934 40.63148499 -157.27999878 11.0261879 39.80091858 -157.27999878 14.56210613 38.64757538 -157.27999878 17.97992706 37.18080521 -157.27999878 21.25193214 35.41250229 -157.27999878 34.5491066 22.62850189 -157.27999878 24.3515892 33.35700989 -157.27999878 32.37327576 25.64490318 -157.27999878 27.25375748 31.03099632 -157.27999878 29.93490028 28.45332527 -157.27999878 -36.83840942 -18.67141151 -157.27999878 36.83840942 -18.67141151 -157.27999878 -35.05195236 -21.84148979 -157.27999878 -32.99339294 -24.84201813 -157.27999878 -30.67871857 -27.64970589 -157.27999878 -28.12589264 -30.24275398 -157.27999878 -25.35473061 -32.60103607 -157.27999878 -22.38674927 -34.70624542 -157.27999878 -19.24498367 -36.54203796 -157.27999878 -15.95382404 -38.0941658 -157.27999878 -12.53881931 -39.35057831 -157.27999878 -9.02647877 -40.3015213 -157.27999878 -5.44406843 -40.93961716 -157.27999878 -1.81939733 -41.25990677 -157.27999878 1.81939733 -41.25990677 -157.27999878 5.44406843 -40.93961716 -157.27999878 9.02647877 -40.3015213 -157.27999878 12.53881931 -39.35057831 -157.27999878 15.95382404 -38.0941658 -157.27999878 19.24498367 -36.54203796 -157.27999878 22.38674927 -34.70624542 -157.27999878 25.35473061 -32.60103607 -157.27999878 28.12589264 -30.24275398 -157.27999878 30.67871857 -27.64970589 -157.27999878 32.99339294 -24.84201813 -157.27999878 35.05195236 -21.84148979 -157.27999878 37.99784088 16.18190765 -157.27999878 53.96942139 19.42858696 -157.27999878 39.26237106 12.81234169 -157.27999878 40.22874451 9.34547901 -157.27999878 40.88962173 5.80764627 -157.27999878 41.2399826 2.22571039 -157.27999878 41.27716827 -1.37312734 -157.27999878 53.96942139 -18.67141151 -157.27999878 41.00089264 -4.96153784 -157.27999878 40.4132576 -8.51226997 -157.27999878 39.51872253 -11.99835968 -157.27999878 38.32408142 -15.39333439 -157.27999878 -38.32408142 -15.39333439 -157.27999878 -54.03057861 -18.67141151 -157.27999878 -39.51872253 -11.99835968 -157.27999878 -40.4132576 -8.51226997 -157.27999878 -41.00089264 -4.96153784 -157.27999878 -41.27716827 -1.37312734 -157.27999878 -54.03057861 19.42858696 -157.27999878 -41.2399826 2.22571039 -157.27999878 -40.88962173 5.80764627 -157.27999878 -40.22874451 9.34547901 -157.27999878 -39.26237106 12.81234169 -157.27999878 -37.99784088 16.18190765 -157.27999878 2.04566526 12.73929501 -257.27999878 8.58054924 12.73929501 -324.28497314 2.04566526 12.73929501 -331.4927063 3.89137101 12.73929501 -332.02636719 3.72731733 12.73929501 -332.22439575 35.34481049 12.73929501 -257.27999878 33.08807755 12.73929501 -266.04495239 30.51232529 12.73929501 -274.7215271 27.62099648 12.73929501 -283.29812622 24.41795731 12.73929501 -291.76321411 20.9074955 12.73929501 -300.10552979 17.09430695 12.73929501 -308.31387329 12.9834919 12.73929501 -316.37728882 3.51818705 12.73929501 -332.37402344 3.27780962 12.73929501 -332.46539307 3.0220809 12.73929501 -332.49243164 2.76791167 12.73929501 -332.45336914 2.53210998 12.73929501 -332.35076904 2.33026862 12.73929501 -332.19143677 2.17573571 12.73929501 -331.98590088 2.07872939 12.73929501 -331.7477417 2.04566526 -13.06070423 -331.4927063 8.58054924 -13.06070423 -324.28497314 2.04566526 -13.06070423 -257.27999878 12.9834919 -13.06070423 -316.37728882 17.09430695 -13.06070423 -308.31387329 2.07872939 -13.06070423 -331.7477417 2.17573571 -13.06070423 -331.98590088 2.33026862 -13.06070423 -332.19143677 2.53210998 -13.06070423 -332.35076904 2.76791167 -13.06070423 -332.45336914 3.0220809 -13.06070423 -332.49243164 3.27780962 -13.06070423 -332.46539307 3.51818705 -13.06070423 -332.37402344 3.72731733 -13.06070423 -332.22439575 3.89137101 -13.06070423 -332.02636719 20.9074955 -13.06070423 -300.10552979 24.41795731 -13.06070423 -291.76321411 27.62099648 -13.06070423 -283.29812622 30.51232529 -13.06070423 -274.7215271 33.08807755 -13.06070423 -266.04495239 35.34481049 -13.06070423 -257.27999878 -2.36340094 -13.06070423 -257.27999878 -8.89828491 -13.06070423 -324.28497314 -2.36340094 -13.06070423 -331.4927063 -4.20910692 -13.06070423 -332.02636719 -4.04505301 -13.06070423 -332.22439575 -35.66254425 -13.06070423 -257.27999878 -33.40581512 -13.06070423 -266.04495239 -30.83006096 -13.06070423 -274.7215271 -27.93873215 -13.06070423 -283.29812622 -24.73569298 -13.06070423 -291.76321411 -21.22523117 -13.06070423 -300.10552979 -17.41204262 -13.06070423 -308.31387329 -13.30122662 -13.06070423 -316.37728882 -3.83592248 -13.06070423 -332.37402344 -3.59554505 -13.06070423 -332.46539307 -3.33981633 -13.06070423 -332.49243164 -3.08564711 -13.06070423 -332.45336914 -2.84984541 -13.06070423 -332.35076904 -2.64800429 -13.06070423 -332.19143677 -2.49347115 -13.06070423 -331.98590088 -2.39646506 -13.06070423 -331.7477417 35.42131042 -13.06070423 -256.95770264 36.03332901 -13.06070423 -257.27999878 35.4973793 -13.06070423 -256.63528442 35.57301712 -13.06070423 -256.31277466 35.68241501 -13.06070423 -255.94999695 35.83667374 -13.06070423 -255.60389709 36.03332901 -13.06070423 -255.27999878 36.03332901 12.73929501 -255.27999878 35.83667374 12.73929501 -255.60389709 36.03332901 12.73929501 -257.27999878 35.68241501 12.73929501 -255.94999695 35.57301712 12.73929501 -256.31277466 35.4973793 12.73929501 -256.63528442 35.42131042 12.73929501 -256.95770264 -35.66254425 12.73929501 -257.27999878 -35.73904419 12.73929501 -256.95770264 -36.35106659 12.73929501 -257.27999878 -35.81511307 12.73929501 -256.63528442 -35.89075089 12.73929501 -256.31277466 -36.00015259 12.73929501 -255.94999695 -36.15441132 12.73929501 -255.60389709 -36.35106659 12.73929501 -255.27999878 -36.00015259 -13.06070423 -255.94999695 -35.89075089 -13.06070423 -256.31277466 -36.35106659 -13.06070423 -257.27999878 -35.81511307 -13.06070423 -256.63528442 -35.73904419 -13.06070423 -256.95770264 -36.35106659 -13.06070423 -255.27999878 -36.15441132 -13.06070423 -255.60389709 -54.03057861 19.42858696 -257.27999878 -2.36340094 12.73929501 -257.27999878 -54.03057861 -18.67141151 -257.27999878 53.96942139 -18.67141151 -257.27999878 53.96942139 19.42858696 -257.27999878 -2.36340094 12.73929501 -331.4927063 -8.89828491 12.73929501 -324.28497314 -13.30122662 12.73929501 -316.37728882 -17.41204262 12.73929501 -308.31387329 -2.39646506 12.73929501 -331.7477417 -2.49347115 12.73929501 -331.98590088 -2.64800429 12.73929501 -332.19143677 -2.84984541 12.73929501 -332.35076904 -3.08564711 12.73929501 -332.45336914 -3.33981633 12.73929501 -332.49243164 -3.59554505 12.73929501 -332.46539307 -3.83592248 12.73929501 -332.37402344 -4.04505301 12.73929501 -332.22439575 -4.20910692 12.73929501 -332.02636719 -21.22523117 12.73929501 -300.10552979 -24.73569298 12.73929501 -291.76321411 -27.93873215 12.73929501 -283.29812622 -30.83006096 12.73929501 -274.7215271 -33.40581512 12.73929501 -266.04495239 -36.07181168 -4.4607048 -255.77450562 -36.07181168 4.13929558 -255.77450562 3.72731733 -7.90070438 -332.22439575 3.72731733 -2.74070454 -332.22439575 3.72731733 2.41929531 -332.22439575 3.51818705 2.41929531 -332.37402344 3.51818705 7.57929564 -332.37402344 3.27780962 7.57929564 -332.46539307 3.0220809 7.57929564 -332.49243164 2.76791167 7.57929564 -332.45336914 2.53210998 7.57929564 -332.35076904 2.33026862 7.57929564 -332.19143677 2.17573571 7.57929564 -331.98590088 2.07872939 7.57929564 -331.7477417 2.07872939 2.41929531 -331.7477417 2.07872939 -2.74070454 -331.7477417 2.17573571 -2.74070454 -331.98590088 2.17573571 -7.90070438 -331.98590088 2.33026862 -7.90070438 -332.19143677 2.53210998 -7.90070438 -332.35076904 2.76791167 -7.90070438 -332.45336914 3.0220809 -7.90070438 -332.49243164 3.27780962 -7.90070438 -332.46539307 3.51818705 -7.90070438 -332.37402344 2.07872939 -7.90070438 -331.7477417 3.72731733 7.57929564 -332.22439575 3.51818705 -2.74070454 -332.37402344 3.27780962 -2.74070454 -332.46539307 3.0220809 -2.74070454 -332.49243164 2.76791167 -2.74070454 -332.45336914 2.53210998 -2.74070454 -332.35076904 2.33026862 -2.74070454 -332.19143677 3.27780962 2.41929531 -332.46539307 3.0220809 2.41929531 -332.49243164 2.76791167 2.41929531 -332.45336914 2.53210998 2.41929531 -332.35076904 2.33026862 2.41929531 -332.19143677 2.17573571 2.41929531 -331.98590088 35.75407791 4.13929558 -255.77450562 35.75407791 -4.4607048 -255.77450562 -4.04505301 7.57929564 -332.22439575 -4.04505301 2.41929531 -332.22439575 -4.04505301 -2.74070454 -332.22439575 -3.83592248 -2.74070454 -332.37402344 -3.83592248 -7.90070438 -332.37402344 -3.59554505 -7.90070438 -332.46539307 -3.33981633 -7.90070438 -332.49243164 -3.08564711 -7.90070438 -332.45336914 -2.84984541 -7.90070438 -332.35076904 -2.64800429 -7.90070438 -332.19143677 -2.49347115 -7.90070438 -331.98590088 -2.39646506 -7.90070438 -331.7477417 -2.39646506 -2.74070454 -331.7477417 -2.39646506 2.41929531 -331.7477417 -2.49347115 2.41929531 -331.98590088 -2.49347115 7.57929564 -331.98590088 -2.64800429 7.57929564 -332.19143677 -2.84984541 7.57929564 -332.35076904 -3.08564711 7.57929564 -332.45336914 -3.33981633 7.57929564 -332.49243164 -3.59554505 7.57929564 -332.46539307 -3.83592248 7.57929564 -332.37402344 -2.39646506 7.57929564 -331.7477417 -4.04505301 -7.90070438 -332.22439575 -3.83592248 2.41929531 -332.37402344 -3.59554505 2.41929531 -332.46539307 -3.33981633 2.41929531 -332.49243164 -3.08564711 2.41929531 -332.45336914 -2.84984541 2.41929531 -332.35076904 -2.64800429 2.41929531 -332.19143677 -3.59554505 -2.74070454 -332.46539307 -3.33981633 -2.74070454 -332.49243164 -3.08564711 -2.74070454 -332.45336914 -2.84984541 -2.74070454 -332.35076904 -2.64800429 -2.74070454 -332.19143677 -2.49347115 -2.74070454 -331.98590088 31.70372772 -26.46816254 0 -26.46816254 31.70372772 0 29.20351028 -29.20351028 0 -29.20351028 29.20351028 0 26.46816254 -31.70372772 -0 -31.70372772 26.46816254 0 23.51970863 -33.94868469 -0 -33.94868469 23.51970863 0 20.38188934 -35.92030716 -0 -35.92030716 20.38188934 0 17.07996559 -37.60272217 -0 -37.60272217 17.07996559 0 13.64052486 -38.98237991 -0 -38.98237991 13.64052486 0 10.091259 -40.04817581 -0 -40.04817581 10.091259 0 6.46074343 -40.79152679 -0 -40.79152679 6.46074343 0 2.77820992 -41.20645142 -0 -41.20645142 2.77820992 0 -0.92669207 -41.28960037 0 -41.28960037 -0.92669207 0 -4.62413263 -41.04031372 0 -41.04031372 -4.62413263 0 -8.28434277 -40.46059418 0 -40.46059418 -8.28434277 0 -11.87785244 -39.55510712 0 -39.55510712 -11.87785244 0 -15.37572765 -38.33115005 0 -38.33115005 -15.37572765 0 -18.74980736 -36.79856873 0 -36.79856873 -18.74980736 0 -21.97292519 -34.9697113 0 -34.9697113 -21.97292519 0 -25.0191288 -32.85929489 0 -32.85929489 -25.0191288 0 -27.86389351 -30.48431396 0 -30.48431396 -27.86389351 0 -23.51970863 33.94868469 0 33.94868469 -23.51970863 0 -20.38188934 35.92030716 0 35.92030716 -20.38188934 0 -17.07996559 37.60272217 0 37.60272217 -17.07996559 0 -13.64052486 38.98237991 0 38.98237991 -13.64052486 0 -10.091259 40.04817581 0 40.04817581 -10.091259 0 -6.46074343 40.79152679 0 40.79152679 -6.46074343 0 -2.77820992 41.20645142 0 41.20645142 -2.77820992 0 0.92669207 41.28960037 0 41.28960037 0.92669207 -0 4.62413263 41.04031372 -0 41.04031372 4.62413263 0 8.28434277 40.46059418 -0 40.46059418 8.28434277 0 11.87785244 39.55510712 -0 39.55510712 11.87785244 0 15.37572765 38.33115005 -0 38.33115005 15.37572765 0 18.74980736 36.79856873 -0 36.79856873 18.74980736 0 21.97292519 34.9697113 -0 34.9697113 21.97292519 0 25.0191288 32.85929489 -0 32.85929489 25.0191288 0 27.86389351 30.48431396 0 30.48431396 27.86389351 0 -36.79856873 -18.74980736 -78.63999939 -38.32761765 -15.38453197 -78.63999939 -39.55510712 -11.87785244 -78.63999939 -40.46059418 -8.28434277 -78.63999939 -41.04031372 -4.62413263 -78.63999939 -41.28960037 -0.92669207 -78.63999939 -41.20645142 2.77820992 -78.63999939 -40.79152679 6.46074343 -78.63999939 -40.04817581 10.091259 -78.63999939 -38.98237991 13.64052486 -78.63999939 -37.60272217 17.07996559 -78.63999939 -35.92030716 20.38188934 -78.63999939 -33.94868469 23.51970863 -78.63999939 -31.70372772 26.46816254 -78.63999939 -29.20351028 29.20351028 -78.63999939 -26.46816254 31.70372772 -78.63999939 -23.51970863 33.94868469 -78.63999939 -20.38188934 35.92030716 -78.63999939 -17.07996559 37.60272217 -78.63999939 -13.64052486 38.98237991 -78.63999939 -10.091259 40.04817581 -78.63999939 -6.46074343 40.79152679 -78.63999939 -2.77820992 41.20645142 -78.63999939 0.92669207 41.28960037 -78.63999939 4.62413263 41.04031372 -78.63999939 8.28434277 40.46059418 -78.63999939 11.87785244 39.55510712 -78.63999939 15.37572765 38.33115005 -78.63999939 18.74980736 36.79856873 -78.63999939 21.97292519 34.9697113 -78.63999939 25.0191288 32.85929489 -78.63999939 27.86389351 30.48431396 -78.63999939 30.48431396 27.86389351 -78.63999939 32.85929489 25.0191288 -78.63999939 34.9697113 21.97292519 -78.63999939 36.79856873 18.74980736 -78.63999939 38.33115005 15.37572765 -78.63999939 39.55510712 11.87785244 -78.63999939 40.46059418 8.28434277 -78.63999939 41.04031372 4.62413263 -78.63999939 41.28960037 0.92669207 -78.63999939 41.20645142 -2.77820992 -78.63999939 40.79152679 -6.46074343 -78.63999939 40.04817581 -10.091259 -78.63999939 38.98237991 -13.64052486 -78.63999939 37.60272217 -17.07996559 -78.63999939 35.92030716 -20.38188934 -78.63999939 33.94868469 -23.51970863 -78.63999939 31.70372772 -26.46816254 -78.63999939 29.20351028 -29.20351028 -78.63999939 26.46816254 -31.70372772 -78.63999939 23.51970863 -33.94868469 -78.63999939 20.38188934 -35.92030716 -78.63999939 17.07996559 -37.60272217 -78.63999939 13.64052486 -38.98237991 -78.63999939 10.091259 -40.04817581 -78.63999939 6.46074343 -40.79152679 -78.63999939 2.77820992 -41.20645142 -78.63999939 -0.92669207 -41.28960037 -78.63999939 -4.62413263 -41.04031372 -78.63999939 -8.28434277 -40.46059418 -78.63999939 -11.87785244 -39.55510712 -78.63999939 -15.37572765 -38.33115005 -78.63999939 -18.74980736 -36.79856873 -78.63999939 -21.97292519 -34.9697113 -78.63999939 -25.0191288 -32.85929489 -78.63999939 -27.86389351 -30.48431396 -78.63999939 -30.48431396 -27.86389351 -78.63999939 -32.85929489 -25.0191288 -78.63999939 -34.9697113 -21.97292519 -78.63999939</float_array>
          <technique_common>
            <accessor source="#pos_0-array" count="1221" stride="3">
              <param name="X" type="float"/>
              <param name="Y" type="float"/>
              <param name="Z" type="float"/>
            </accessor>
          </technique_common>
        </source>
        <source id="norm_0">
          <float_array id="norm_0-array" count="1488">0 0 -1 0 0 -1 0 -0 -1 0 -0 -1 0 -0 -1 0 -0 -1 0 -0 -1 0 -0 -1 0 -0 -1 0 -0 -1 0 -0 -1 0 -0 -1 -0 -0 -1 -0 -0 -1 -0 -0 -1 -0 -0 -1 -0 -0 -1 -0 -0 -1 -0 -0 -1 0 0 -1 0 -0 -1 0 0 -1 0 -0 -1 0 0 -1 0 0 -1 0 0 -1 0 0 -1 0 0 -1 0 0 -1 0 0 -1 0 0 -1 0 0 -1 0 0 -1 -0 0 -1 -0 0 -1 -0 0 -1 -0 0 -1 -0 0 -1 -0 0 -1 -0 0 -1 -0 0 -1 -0 0 -1 -0 0 -1 -0 0 -1 -0 -0 1 -0 -0 1 -0 -0 1 -0 -0 1 -0 -0 1 -0 -0 1 -0 -0 1 -0 -0 1 -0 -0 1 -0 -0 1 -0 0 1 -0 0 1 -0 -0 1 -0 -0 1 -0 -0 1 -0 -0 1 -0 -0 1 -0 0 1 -0 -0 1 -0 0 1 -0 -0 1 -0 0 1 -0 0 1 -0 0 1 0 1 0 0 -1 0 0 -1 0 -0 -1 0 0 -1 0 0 -1 0 0 -1 0 0 -1 -0 0 1 0 0 -1 -0 -1 0 -0 -0 1 0 -0 1 -0 -0 1 0 1 0 0 0 0 -1 0 0 -1 0 0 -1 0 -0 -1 0 0 -1 0 -0 -1 -0 -0 -1 -0 -0 -1 0 0 -1 0 -0 -1 0 0 -1 0 0 -1 0 0 -1 0 0 -1 0 -0 -1 -0 1 0 -0 1 -0 0 1 -0 -1 0 -0 1 0 0 1 0 0 0 -1 -0 0 -1 -0 0 -1 0 -0.85478 0 -0.51899 -0.88291 -0.00084 -0.46954 -0.91338 0.0007 -0.4071 -0.95741 -0.00209 -0.28872 -0.94781 0 -0.31882 -0.93945 0.00084 -0.34269 -0.91338 -0.0007 -0.4071 -0.85478 0.00209 -0.51899 -0.87075 0 -0.49173 -0.95741 0 -0.28872 1 0 -0 -0.97297 -0 -0.23094 -0.96842 -0 -0.24934 -0.96842 -0 -0.24934 -0.95865 -0 -0.28459 -0.95865 -0 -0.28459 -0.9476 -0 -0.31945 -0.9476 0 -0.31945 -0.93529 0 -0.35389 -0.93529 0 -0.35389 -0.92172 0 -0.38786 -0.92172 0 -0.38786 -0.90692 0 -0.42131 -0.8909 0 -0.45419 -0.8737 0 -0.48647 -0.85532 0 -0.51809 -0.97297 0 -0.23094 -0.97328 -0 -0.22963 -0.97358 -0 -0.22833 -1 0 0 0.97297 0 -0.23094 0.96842 0 -0.24934 0.95865 0 -0.28459 0.9476 0 -0.31945 0.93529 0 -0.35389 0.92172 0 -0.38786 0.90692 0 -0.42131 0.8909 0 -0.45419 0.8737 0 -0.48647 0.85532 0 -0.51809 0.97328 0 -0.22963 0.97358 0 -0.22833 0.77007 0 -0.63796 0.58192 0 -0.81325 0.35528 0 -0.93476 0.10515 0 -0.99446 -0.15193 -0 -0.98839 -0.15193 0 -0.98839 -0.39897 0 -0.91697 -0.61962 0 -0.7849 -0.7993 0 -0.60094 -0.7993 -0 -0.60094 -0.92612 -0 -0.37723 -0.92612 -0 -0.37723 -0.9917 -0 -0.12858 -0.7993 0 -0.60094 -0.7993 -0 -0.60094 -0.61962 -0 -0.7849 -0.39897 -0 -0.91697 -0.15193 -0 -0.98839 -0.7993 0 -0.60094 -0.92612 0 -0.37723 -0.39897 -0 -0.91697 -0.61962 -0 -0.7849 -0.39897 0 -0.91697 -0.61962 0 -0.7849 -0.61962 -0 -0.7849 0.85478 0 -0.51899 0.88291 0.00084 -0.46954 0.91338 -0.0007 -0.4071 0.95741 0.00209 -0.28872 0.94781 0 -0.31882 0.93945 -0.00084 -0.34269 0.91338 0.0007 -0.4071 0.85478 -0.00209 -0.51899 0.87075 0 -0.49173 0.95741 0 -0.28872 -0.77007 -0 -0.63796 -0.58192 0 -0.81325 -0.35528 0 -0.93476 -0.10515 0 -0.99446 0.15193 0 -0.98839 0.15193 -0 -0.98839 0.39897 -0 -0.91697 0.61962 -0 -0.7849 0.61962 -0 -0.7849 0.7993 -0 -0.60094 0.7993 0 -0.60094 0.92612 0 -0.37723 0.92612 0 -0.37723 0.9917 0 -0.12858 0.7993 0 -0.60094 0.7993 0 -0.60094 0.61962 0 -0.7849 0.39897 -0 -0.91697 0.39897 0 -0.91697 0.15193 0 -0.98839 0.7993 -0 -0.60094 0.92612 -0 -0.37723 0.39897 0 -0.91697 0.61962 0 -0.7849 0.39897 -0 -0.91697 0.61962 -0 -0.7849 0.61962 0 -0.7849 0 0 1 -0 -0 1 0 -0 1 0 -0 1 0 -0 1 0 -0 1 0 -0 1 0 -0 1 0 -0 1 0 -0 1 0 -0 1 0 -0 1 0 -0 1 0 -0 1 0 -0 1 0 -0 1 0 -0 1 0 0 1 0 0 1 -0 -0 1 0 0 1 -0 -0 1 0 0 1 -0 -0 1 -0 -0 1 -0 -0 1 0 0 1 -0 -0 1 0 0 1 -0 -0 1 0 0 1 -0 -0 1 0 0 1 -0 -0 1 -0 -0 1 -0.87119 -0.49095 -5E-05 -0.91043 -0.41366 5E-05 -0.91082 -0.4128 1E-05 -0.9433 -0.33193 -1E-05 -0.94385 -0.33039 7E-05 -0.96862 -0.24855 -7E-05 -0.96969 -0.24434 0.00012 -0.98658 -0.16328 -0.00012 -0.98769 -0.15643 0.00018 -0.99705 -0.07676 -0.00017 -0.99773 -0.06727 0.00022 -0.99995 0.01033 -0.00022 -0.99975 0.02244 0.00027 -0.99525 0.09735 -0.00026 -0.99371 0.11196 0.00031 -0.983 0.18363 -0.0003 -0.97968 0.20059 0.00035 -0.96328 0.26851 -0.00033 -0.95775 0.2876 0.00038 -0.93624 0.35135 -0.00037 -0.92811 0.37229 0.00041 -0.9021 0.43153 -0.0004 -0.89101 0.45399 0.00044 -0.86036 0.50968 -0.00044 -0.84672 0.53203 0.00044 -0.81102 0.58502 -0.00044 -0.79562 0.60579 0.00043 -0.7551 0.65561 -0.00043 -0.73812 0.67467 0.00043 -0.69306 0.72088 -0.00043 -0.67467 0.73812 0.00043 -0.6254 0.78031 -0.00043 -0.60579 0.79562 0.00042 -0.55266 0.83341 -0.00042 -0.53203 0.84672 0.00042 -0.47544 0.87975 -0.00042 -0.45399 0.89101 0.00042 -0.39437 0.91895 -0.00042 -0.37229 0.92811 0.00041 -0.3101 0.9507 -0.00041 -0.2876 0.95775 0.00041 -0.22331 0.97475 -0.00041 -0.20059 0.97968 0.0004 -0.13472 0.99088 -0.00041 -0.11196 0.99371 0.0004 -0.04503 0.99899 -0.0004 -0.02244 0.99975 0.0004 0.04503 0.99899 -0.0004 0.06727 0.99773 0.00039 0.13472 0.99088 -0.00039 0.15643 0.98769 0.00039 0.22331 0.97475 -0.00039 0.24434 0.96969 0.00038 0.3101 0.9507 -0.00039 0.33028 0.94388 0.00038 0.39437 0.91895 -0.00038 0.41356 0.91048 0.00038 0.47544 0.87975 -0.00038 0.49351 0.86974 0.00037 0.55266 0.83341 -0.00037 0.56948 0.822 0.00037 0.6254 0.78031 -0.00037 0.64088 0.76764 0.00036 0.69306 0.72088 -0.00037 0.70711 0.70711 0.00036 0.7551 0.65561 -0.00036 0.76764 0.64088 0.00036 0.81102 0.58502 -0.00036 0.822 0.56948 0.00035 0.86036 0.50968 -0.00035 0.86974 0.49351 0.00035 0.9021 0.43153 -0.00033 0.91048 0.41356 0.00038 0.93624 0.35135 -0.00037 0.94388 0.33028 0.00041 0.96328 0.26851 -0.0004 0.96969 0.24434 0.00044 0.983 0.18363 -0.00042 0.98769 0.15643 0.00046 0.99525 0.09735 -0.00044 0.99773 0.06727 0.00048 0.99995 0.01033 -0.00046 0.99975 -0.02244 0.0005 0.99705 -0.07676 -0.00047 0.99371 -0.11196 0.00051 0.98658 -0.16328 -0.00049 0.97968 -0.20059 0.00052 0.96862 -0.24855 -0.00049 0.95775 -0.2876 0.00053 0.9433 -0.33193 -0.0005 0.92811 -0.37229 0.00053 0.91082 -0.4128 -0.0005 0.89101 -0.45399 0.00053 0.87119 -0.49095 -0.00051 0.84672 -0.53203 0.00053 0.82459 -0.56572 -0.0005 0.79562 -0.60579 0.00052 0.7716 -0.63611 -0.0005 0.73812 -0.67467 0.00052 0.71261 -0.70156 -0.00049 0.67467 -0.73812 0.00051 0.64809 -0.76156 -0.00049 0.60579 -0.79562 0.0005 0.57855 -0.81565 -0.00048 0.53203 -0.84672 0.00049 0.50451 -0.86341 -0.00047 0.45399 -0.89101 0.00048 0.42655 -0.90446 -0.00046 0.37229 -0.92811 0.00047 0.34528 -0.9385 -0.00044 0.2876 -0.95775 0.00046 0.26133 -0.96525 -0.00043 0.20059 -0.97968 0.00044 0.17536 -0.9845 -0.00041 0.11196 -0.99371 0.00042 0.08802 -0.99612 -0.0004 0.02244 -0.99975 0.00041 -0 -1 -0.00038 -0.06727 -0.99773 0.00039 -0.08802 -0.99612 -0.00036 -0.15643 -0.98769 0.00037 -0.17536 -0.9845 -0.00034 -0.24434 -0.96969 0.00034 -0.26133 -0.96525 -0.00031 -0.33028 -0.94388 0.00032 -0.34528 -0.9385 -0.00029 -0.41356 -0.91048 0.0003 -0.42655 -0.90446 -0.00026 -0.49351 -0.86974 0.00027 -0.50451 -0.86341 -0.00024 -0.56948 -0.822 0.00024 -0.57855 -0.81565 -0.00021 -0.64088 -0.76764 0.00021 -0.64809 -0.76156 -0.00018 -0.70711 -0.70711 0.00018 -0.71261 -0.70156 -0.00015 -0.76764 -0.64088 0.00015 -0.7716 -0.63611 -0.00012 -0.822 -0.56948 0.00012 -0.82459 -0.56572 -8E-05 -0.86974 -0.49351 8E-05 0.67467 -0.73812 0 0.67467 -0.73812 -0 0.73812 -0.67467 -0 0.73812 -0.67467 0 0.79562 -0.60579 0 0.79562 -0.60579 0 0.84672 -0.53203 0 0.84672 -0.53203 -0 0.89101 -0.45399 -0 0.89101 -0.45399 0 0.92812 -0.37229 0 0.95775 -0.2876 0 0.97968 -0.20059 0 0.99371 -0.11196 0 0.99371 -0.11196 -0 0.99975 -0.02244 -0 0.99975 -0.02244 0 0.99773 0.06727 0 0.99773 0.06727 -0 0.98769 0.15643 -0 0.98769 0.15643 0 0.96969 0.24434 0 0.96969 0.24434 -0 0.94388 0.33028 -0 0.91048 0.41356 -0 0.91048 0.41356 0 0.86974 0.49351 0 0.822 0.56948 0 0.822 0.56948 -0 0.76764 0.64088 -0 0.70711 0.70711 -0 0.70711 0.70711 -0 0.64088 0.76764 -0 0.56948 0.822 -0 0.56948 0.822 0 0.49351 0.86974 0 0.49351 0.86974 0 0.41356 0.91048 0 0.33028 0.94388 0 0.33028 0.94388 0 0.24434 0.96969 0 0.24434 0.96969 -0 0.15643 0.98769 -0 0.15643 0.98769 0 0.06727 0.99773 0 -0.02244 0.99975 0 -0.02244 0.99975 -0 -0.11196 0.99371 -0 -0.11196 0.99371 0 -0.20059 0.97968 0 -0.2876 0.95775 0 -0.37229 0.92812 0 -0.45399 0.89101 0 -0.53203 0.84672 0 -0.60579 0.79562 0 -0.67467 0.73812 0 -0.67467 0.73812 0 -0.73812 0.67467 0 -0.73812 0.67467 0 -0.79562 0.60579 0 -0.84672 0.53203 0 -0.84672 0.53203 0 -0.89101 0.45399 0 -0.89101 0.45399 0 -0.92812 0.37229 0 -0.95775 0.2876 0 -0.95775 0.2876 -0 -0.97968 0.20059 -0 -0.97968 0.20059 0 -0.99371 0.11196 0 -0.99975 0.02244 0 -0.99773 -0.06727 -0 -0.98769 -0.15643 -0 -0.96969 -0.24434 -0 -0.94388 -0.33028 -0 -0.94385 -0.33039 -1E-05 -0.91048 -0.41356 1E-05 -0.91043 -0.41366 -0 -0.86974 -0.49351 -0 -0.86974 -0.49351 -0 -0.822 -0.56948 -0 -0.822 -0.56948 -0 -0.76764 -0.64088 -0 -0.70711 -0.70711 -0 -0.70711 -0.70711 -0 -0.64088 -0.76764 -0 -0.64088 -0.76764 -0 -0.56948 -0.822 -0 -0.49351 -0.86974 -0 -0.41356 -0.91048 -0 -0.41356 -0.91048 0 -0.33028 -0.94388 0 -0.33028 -0.94388 -0 -0.24434 -0.96969 -0 -0.15643 -0.98769 -0 -0.06727 -0.99773 -0 -0.06727 -0.99773 -0 0.02244 -0.99975 -0 0.02244 -0.99975 0 0.11196 -0.99371 0 0.11196 -0.99371 -0 0.20059 -0.97968 -0 0.2876 -0.95775 -0 0.37229 -0.92812 -0 0.37229 -0.92812 0 0.45399 -0.89101 0 0.45399 -0.89101 0 0.53203 -0.84672 0 0.60579 -0.79562 0</float_array>
          <technique_common>
            <accessor source="#norm_0-array" count="1488" stride="3">
              <param name="X" type="float"/>
              <param name="Y" type="float"/>
              <param name="Z" type="float"/>
            </accessor>
          </technique_common>
        </source>
        <vertices id="vert_0">
          <input semantic="POSITION" source="#pos_0"/>
        </vertices>
        <triangles count="809">
          <input semantic="VERTEX" source="#vert_0" offset="0"/>
          <input semantic="NORMAL" source="#norm_0" offset="1"/>
          <p>2 1 1 1 3 1 2 2 3 2 4 2 4 3 5 3 2 3 2 4 5 4 6 4 2 5 6 5 7 5 7 6 8 6 2 6 2 7 8 7 9 7 2 8 9 8 10 8 10 9 11 9 2 9 2 10 11 10 12 10 2 11 12 11 13 11 13 12 14 12 2 12 2 13 14 13 15 13 2 14 15 14 16 14 16 15 17 15 2 15 2 16 17 16 18 16 2 17 18 17 19 17 2 18 19 18 20 18 20 19 19 19 21 19 20 19 21 19 22 19 22 19 21 19 23 19 22 19 23 19 24 19 25 20 26 20 27 20 27 21 26 21 28 21 28 22 26 22 29 22 29 23 26 23 30 23 30 24 26 24 31 24 31 25 26 25 32 25 32 26 26 26 33 26 33 27 26 27 34 27 34 28 26 28 35 28 35 29 26 29 36 29 36 30 26 30 37 30 37 31 26 31 38 31 38 32 26 32 39 32 39 33 26 33 40 33 40 34 26 34 41 34 41 35 26 35 42 35 42 36 26 36 43 36 43 37 26 37 44 37 44 38 26 38 45 38 45 39 26 39 46 39 46 40 26 40 47 40 47 41 26 41 48 41 48 42 26 42 49 42 49 43 26 43 50 43 2 44 51 44 52 44 52 45 51 45 53 45 52 46 53 46 54 46 54 47 55 47 52 47 52 48 55 48 56 48 52 49 56 49 57 49 52 50 57 50 58 50 58 51 57 51 59 51 58 52 59 52 60 52 60 53 61 53 58 53 58 54 61 54 62 54 58 55 62 55 26 55 25 56 63 56 64 56 64 57 63 57 65 57 64 58 65 58 66 58 66 59 67 59 64 59 64 60 67 60 68 60 64 61 68 61 69 61 69 62 68 62 70 62 69 63 70 63 71 63 71 64 72 64 69 64 69 65 72 65 73 65 69 66 73 66 74 66 74 67 0 67 69 67 75 68 76 68 77 68 77 68 76 68 78 68 77 68 78 68 79 68 80 68 81 68 75 68 75 68 81 68 82 68 75 68 82 68 83 68 83 68 84 68 75 68 75 68 84 68 85 68 75 68 85 68 86 68 86 68 87 68 75 68 75 68 87 68 76 68 79 68 88 68 77 68 77 68 88 68 89 68 77 68 89 68 90 68 90 68 91 68 77 68 77 68 91 68 92 68 77 68 92 68 93 68 93 68 94 68 77 68 77 68 94 68 95 68 96 69 97 69 98 69 98 69 97 69 99 69 98 69 99 69 100 69 101 69 102 69 96 69 96 69 102 69 103 69 96 69 103 69 104 69 104 69 105 69 96 69 96 69 105 69 106 69 96 69 106 69 107 69 107 69 108 69 96 69 96 69 108 69 109 69 96 69 109 69 110 69 110 69 97 69 96 69 100 69 111 69 98 69 98 69 111 69 112 69 98 69 112 69 113 69 113 69 114 69 98 69 98 69 114 69 115 69 98 70 115 70 116 70 117 69 118 69 119 69 119 69 118 69 120 69 119 69 120 69 121 69 122 71 123 71 117 71 117 72 123 72 124 72 117 73 124 73 125 73 125 74 126 74 117 74 117 75 126 75 127 75 117 69 127 69 128 69 128 69 129 69 117 69 117 69 129 69 118 69 121 69 130 69 119 69 119 69 130 69 131 69 119 69 131 69 132 69 132 69 133 69 119 69 119 69 133 69 134 69 119 69 134 69 135 69 135 69 136 69 119 69 119 69 136 69 137 69 116 76 138 76 139 76 139 68 138 68 140 68 139 68 140 68 141 68 141 68 142 68 139 68 139 68 142 68 143 68 139 68 143 68 144 68 145 69 146 69 147 69 147 69 146 69 148 69 147 69 148 69 149 69 149 69 150 69 147 69 147 69 150 69 151 69 147 69 151 69 80 69 152 77 153 77 154 77 154 69 153 69 155 69 154 69 155 69 156 69 156 69 157 69 154 69 154 69 157 69 158 69 154 69 158 69 159 69 144 78 145 78 139 78 139 78 145 78 147 78 160 68 161 68 162 68 162 79 161 79 163 79 162 80 163 80 164 80 164 81 122 81 162 81 165 68 166 68 162 68 162 68 166 68 160 68 159 82 165 82 154 82 154 82 165 82 162 82 152 83 167 83 168 83 168 84 167 84 75 84 168 85 75 85 117 85 117 85 75 85 98 85 117 86 98 86 169 86 169 87 98 87 170 87 170 88 98 88 116 88 170 89 116 89 139 89 152 90 154 90 167 90 167 91 154 91 169 91 169 91 154 91 162 91 169 92 162 92 122 92 122 93 117 93 169 93 80 94 171 94 147 94 147 95 171 95 170 95 147 95 170 95 139 95 80 96 75 96 171 96 171 97 75 97 167 97 172 68 173 68 168 68 168 68 173 68 174 68 168 68 174 68 175 68 176 68 177 68 172 68 172 68 177 68 178 68 172 68 178 68 179 68 179 68 180 68 172 68 172 68 180 68 181 68 172 68 181 68 182 68 182 68 183 68 172 68 172 68 183 68 184 68 172 68 184 68 185 68 185 68 173 68 172 68 175 68 186 68 168 68 168 68 186 68 187 68 168 68 187 68 188 68 188 98 189 98 168 98 168 99 189 99 190 99 168 100 190 100 152 100 169 101 64 101 167 101 167 101 64 101 69 101 58 102 170 102 52 102 52 103 170 103 171 103 69 68 0 68 167 68 167 68 0 68 171 68 171 68 0 68 2 68 171 68 2 68 52 68 64 104 169 104 25 104 25 105 169 105 170 105 25 106 170 106 26 106 26 69 170 69 58 69 165 107 159 107 166 107 166 108 159 108 191 108 166 109 191 109 160 109 160 110 191 110 161 110 161 111 191 111 192 111 161 112 192 112 157 112 157 113 192 113 158 113 158 114 192 114 159 114 159 115 192 115 191 115 157 116 156 116 161 116 117 117 119 117 168 117 168 117 119 117 172 117 153 118 152 118 122 118 122 119 152 119 190 119 122 120 190 120 123 120 123 121 190 121 189 121 123 122 189 122 124 122 124 123 189 123 188 123 124 124 188 124 125 124 125 125 188 125 187 125 125 126 187 126 126 126 126 127 187 127 186 127 126 128 186 128 127 128 127 129 186 129 175 129 127 129 175 129 128 129 128 130 175 130 174 130 128 130 174 130 129 130 129 131 174 131 173 131 129 131 173 131 118 131 118 132 173 132 120 132 120 132 173 132 185 132 122 133 164 133 153 133 153 134 164 134 155 134 155 134 164 134 163 134 155 135 163 135 156 135 156 135 163 135 161 135 75 136 77 136 98 136 98 136 77 136 96 136 138 137 116 137 80 137 80 138 116 138 115 138 80 138 115 138 81 138 81 139 115 139 114 139 81 139 114 139 82 139 82 140 114 140 113 140 82 140 113 140 83 140 83 141 113 141 112 141 83 141 112 141 84 141 84 142 112 142 111 142 84 142 111 142 85 142 85 143 111 143 100 143 85 143 100 143 86 143 86 144 100 144 99 144 86 144 99 144 87 144 87 145 99 145 97 145 87 145 97 145 76 145 76 146 97 146 78 146 78 146 97 146 110 146 80 137 151 137 138 137 138 147 151 147 140 147 140 147 151 147 150 147 140 148 150 148 141 148 141 148 150 148 149 148 109 149 193 149 110 149 110 149 193 149 194 149 110 149 194 149 195 149 195 150 194 150 196 150 195 150 196 150 197 150 197 151 196 151 198 151 197 151 198 151 89 151 89 152 198 152 90 152 90 152 198 152 199 152 90 153 199 153 91 153 91 154 199 154 200 154 91 155 200 155 92 155 92 155 200 155 201 155 92 156 201 156 93 156 93 156 201 156 202 156 93 157 202 157 94 157 94 158 202 158 203 158 94 159 203 159 95 159 95 160 203 160 204 160 95 161 204 161 77 161 77 161 204 161 205 161 77 161 205 161 206 161 206 160 205 160 207 160 206 160 207 160 208 160 208 162 207 162 209 162 208 163 209 163 103 163 103 164 209 164 104 164 104 156 209 156 210 156 104 155 210 155 105 155 105 165 210 165 211 165 105 166 211 166 106 166 106 153 211 153 212 153 106 152 212 152 107 152 107 152 212 152 213 152 107 151 213 151 108 151 108 151 213 151 214 151 108 150 214 150 109 150 109 150 214 150 193 150 103 167 102 167 208 167 208 168 102 168 215 168 208 160 215 160 206 160 206 161 215 161 96 161 206 161 96 161 77 161 102 160 101 160 215 160 215 161 101 161 96 161 89 151 88 151 197 151 197 150 88 150 216 150 197 150 216 150 195 150 195 149 216 149 78 149 195 149 78 149 110 149 88 150 79 150 216 150 216 149 79 149 78 149 194 150 193 150 217 150 217 150 193 150 214 150 217 151 214 151 218 151 218 151 214 151 213 151 218 152 213 152 219 152 219 152 213 152 212 152 219 153 212 153 220 153 220 153 212 153 211 153 220 169 211 169 221 169 221 165 211 165 210 165 221 164 210 164 222 164 222 170 210 170 209 170 222 162 209 162 207 162 194 150 217 150 196 150 196 151 217 151 223 151 196 151 223 151 198 151 198 152 223 152 199 152 223 151 217 151 218 151 223 152 218 152 224 152 224 152 218 152 219 152 224 153 219 153 225 153 225 153 219 153 220 153 225 169 220 169 226 169 226 171 220 171 221 171 226 172 221 172 227 172 227 170 221 170 222 170 227 162 222 162 228 162 228 162 222 162 207 162 228 160 207 160 205 160 200 153 199 153 224 153 224 152 199 152 223 152 200 153 224 153 225 153 201 169 200 169 225 169 201 165 225 165 226 165 202 173 201 173 226 173 202 170 226 170 227 170 203 162 202 162 227 162 203 162 227 162 228 162 204 160 203 160 228 160 204 160 228 160 205 160 145 174 144 174 146 174 146 175 144 175 229 175 146 176 229 176 148 176 148 177 229 177 149 177 149 178 229 178 230 178 149 179 230 179 142 179 142 180 230 180 143 180 143 181 230 181 144 181 144 182 230 182 229 182 142 183 141 183 149 183 184 184 231 184 185 184 185 184 231 184 232 184 185 184 232 184 233 184 233 185 232 185 234 185 233 185 234 185 235 185 235 186 234 186 236 186 235 186 236 186 131 186 131 187 236 187 132 187 132 187 236 187 237 187 132 188 237 188 133 188 133 189 237 189 238 189 133 190 238 190 134 190 134 190 238 190 239 190 134 191 239 191 135 191 135 192 239 192 240 192 135 193 240 193 136 193 136 194 240 194 241 194 136 195 241 195 137 195 137 196 241 196 242 196 137 197 242 197 119 197 119 197 242 197 243 197 119 197 243 197 244 197 244 196 243 196 245 196 244 196 245 196 246 196 246 198 245 198 247 198 246 199 247 199 178 199 178 200 247 200 179 200 179 192 247 192 248 192 179 201 248 201 180 201 180 202 248 202 249 202 180 203 249 203 181 203 181 188 249 188 250 188 181 187 250 187 182 187 182 187 250 187 251 187 182 186 251 186 183 186 183 186 251 186 252 186 183 185 252 185 184 185 184 185 252 185 231 185 178 204 177 204 246 204 246 205 177 205 253 205 246 196 253 196 244 196 244 197 253 197 172 197 244 197 172 197 119 197 177 196 176 196 253 196 253 197 176 197 172 197 131 186 130 186 235 186 235 185 130 185 254 185 235 185 254 185 233 185 233 184 254 184 120 184 233 184 120 184 185 184 130 185 121 185 254 185 254 184 121 184 120 184 232 185 231 185 255 185 255 185 231 185 252 185 255 186 252 186 256 186 256 186 252 186 251 186 256 187 251 187 257 187 257 187 251 187 250 187 257 188 250 188 258 188 258 188 250 188 249 188 258 206 249 206 259 206 259 206 249 206 248 206 259 207 248 207 260 207 260 207 248 207 247 207 260 198 247 198 245 198 232 185 255 185 234 185 234 186 255 186 261 186 234 186 261 186 236 186 236 187 261 187 237 187 261 186 255 186 256 186 261 187 256 187 262 187 262 187 256 187 257 187 262 188 257 188 263 188 263 188 257 188 258 188 263 206 258 206 264 206 264 208 258 208 259 208 264 209 259 209 265 209 265 207 259 207 260 207 265 198 260 198 266 198 266 198 260 198 245 198 266 196 245 196 243 196 238 188 237 188 262 188 262 187 237 187 261 187 238 188 262 188 263 188 239 206 238 206 263 206 239 202 263 202 264 202 240 210 239 210 264 210 240 207 264 207 265 207 241 198 240 198 265 198 241 198 265 198 266 198 242 196 241 196 266 196 242 196 266 196 243 196 267 211 268 211 269 211 269 211 268 211 270 211 269 212 270 212 271 212 271 213 270 213 272 213 271 214 272 214 273 214 273 215 272 215 274 215 273 216 274 216 275 216 275 217 274 217 276 217 275 218 276 218 277 218 277 219 276 219 278 219 277 220 278 220 279 220 279 221 278 221 280 221 279 222 280 222 281 222 281 223 280 223 282 223 281 224 282 224 283 224 283 225 282 225 284 225 283 226 284 226 285 226 285 227 284 227 286 227 285 228 286 228 287 228 287 229 286 229 288 229 287 229 288 229 289 229 289 230 288 230 290 230 289 231 290 231 291 231 291 232 290 232 292 232 291 233 292 233 293 233 293 234 292 234 294 234 293 235 294 235 295 235 295 211 294 211 296 211 295 211 296 211 297 211 297 211 296 211 298 211 297 211 298 211 299 211 299 211 298 211 300 211 299 211 300 211 301 211 301 211 300 211 302 211 301 211 302 211 303 211 303 211 302 211 304 211 268 211 267 211 305 211 305 211 267 211 306 211 305 211 306 211 307 211 307 211 306 211 308 211 307 211 308 211 309 211 309 211 308 211 310 211 309 211 310 211 311 211 311 211 310 211 312 211 311 236 312 236 313 236 313 223 312 223 314 223 313 224 314 224 315 224 315 225 314 225 316 225 315 226 316 226 317 226 317 227 316 227 318 227 317 228 318 228 319 228 319 229 318 229 320 229 319 229 320 229 321 229 321 230 320 230 322 230 321 231 322 231 323 231 323 232 322 232 324 232 323 233 324 233 325 233 325 234 324 234 326 234 325 237 326 237 327 237 327 238 326 238 328 238 327 239 328 239 329 239 329 240 328 240 330 240 329 241 330 241 331 241 331 242 330 242 332 242 331 243 332 243 333 243 333 244 332 244 334 244 333 245 334 245 335 245 335 211 334 211 336 211 27 246 337 246 25 246 25 247 337 247 338 247 25 248 338 248 63 248 63 249 338 249 65 249 65 250 338 250 339 250 65 251 339 251 66 251 66 252 339 252 340 252 66 253 340 253 67 253 67 254 340 254 341 254 67 255 341 255 68 255 68 256 341 256 342 256 68 257 342 257 70 257 70 258 342 258 343 258 70 259 343 259 71 259 71 260 343 260 344 260 71 261 344 261 72 261 72 262 344 262 345 262 72 263 345 263 73 263 73 264 345 264 346 264 73 265 346 265 74 265 74 266 346 266 347 266 74 267 347 267 0 267 0 268 347 268 348 268 0 269 348 269 1 269 1 270 348 270 349 270 1 271 349 271 3 271 3 272 349 272 350 272 3 273 350 273 4 273 4 274 350 274 351 274 4 275 351 275 5 275 5 276 351 276 352 276 5 277 352 277 6 277 6 278 352 278 353 278 6 279 353 279 7 279 7 280 353 280 354 280 7 281 354 281 8 281 8 282 354 282 355 282 8 283 355 283 9 283 9 284 355 284 356 284 9 285 356 285 10 285 10 286 356 286 357 286 10 287 357 287 11 287 11 288 357 288 358 288 11 289 358 289 12 289 12 290 358 290 359 290 12 291 359 291 13 291 13 292 359 292 360 292 13 293 360 293 14 293 14 294 360 294 361 294 14 295 361 295 15 295 15 296 361 296 362 296 15 297 362 297 16 297 16 298 362 298 363 298 16 299 363 299 17 299 17 300 363 300 364 300 17 301 364 301 18 301 18 302 364 302 365 302 18 303 365 303 19 303 19 304 365 304 366 304 19 305 366 305 21 305 21 306 366 306 367 306 21 307 367 307 23 307 23 308 367 308 368 308 23 309 368 309 24 309 24 310 368 310 369 310 24 311 369 311 22 311 22 312 369 312 370 312 22 313 370 313 20 313 20 314 370 314 371 314 20 315 371 315 2 315 2 316 371 316 372 316 2 317 372 317 51 317 51 318 372 318 373 318 51 319 373 319 53 319 53 320 373 320 374 320 53 321 374 321 54 321 54 322 374 322 375 322 54 323 375 323 55 323 55 324 375 324 376 324 55 325 376 325 56 325 56 326 376 326 377 326 56 327 377 327 57 327 57 328 377 328 378 328 57 329 378 329 59 329 59 330 378 330 379 330 59 331 379 331 60 331 60 332 379 332 380 332 60 333 380 333 61 333 61 334 380 334 381 334 61 335 381 335 62 335 62 336 381 336 382 336 62 337 382 337 26 337 26 338 382 338 383 338 26 339 383 339 50 339 50 340 383 340 384 340 50 341 384 341 49 341 49 342 384 342 385 342 49 343 385 343 48 343 48 344 385 344 386 344 48 345 386 345 47 345 47 346 386 346 387 346 47 347 387 347 46 347 46 348 387 348 388 348 46 349 388 349 45 349 45 350 388 350 389 350 45 351 389 351 44 351 44 352 389 352 390 352 44 353 390 353 43 353 43 354 390 354 391 354 43 355 391 355 42 355 42 356 391 356 392 356 42 357 392 357 41 357 41 358 392 358 393 358 41 359 393 359 40 359 40 360 393 360 394 360 40 361 394 361 39 361 39 362 394 362 395 362 39 363 395 363 38 363 38 364 395 364 396 364 38 365 396 365 37 365 37 366 396 366 397 366 37 367 397 367 36 367 36 368 397 368 398 368 36 369 398 369 35 369 35 370 398 370 399 370 35 371 399 371 34 371 34 372 399 372 400 372 34 373 400 373 33 373 33 374 400 374 401 374 33 375 401 375 32 375 32 376 401 376 402 376 32 377 402 377 31 377 31 378 402 378 403 378 31 379 403 379 30 379 30 380 403 380 404 380 30 381 404 381 29 381 29 382 404 382 405 382 29 383 405 383 28 383 28 384 405 384 406 384 28 385 406 385 27 385 27 386 406 386 337 386 271 387 387 387 269 387 269 388 387 388 386 388 269 389 386 389 267 389 267 390 386 390 385 390 267 391 385 391 306 391 306 392 385 392 384 392 306 393 384 393 308 393 308 394 384 394 383 394 308 395 383 395 310 395 310 396 383 396 382 396 310 397 382 397 312 397 312 397 382 397 381 397 312 398 381 398 314 398 314 398 381 398 380 398 314 399 380 399 316 399 316 399 380 399 379 399 316 400 379 400 318 400 318 401 379 401 378 401 318 402 378 402 320 402 320 403 378 403 377 403 320 404 377 404 322 404 322 405 377 405 376 405 322 406 376 406 324 406 324 407 376 407 375 407 324 408 375 408 326 408 326 409 375 409 374 409 326 410 374 410 328 410 328 410 374 410 373 410 328 411 373 411 330 411 330 412 373 412 372 412 330 413 372 413 332 413 332 413 372 413 371 413 332 414 371 414 334 414 334 415 371 415 370 415 334 416 370 416 336 416 336 416 370 416 369 416 336 417 369 417 335 417 335 418 369 418 368 418 335 419 368 419 333 419 333 419 368 419 367 419 333 420 367 420 331 420 331 421 367 421 366 421 331 422 366 422 329 422 329 423 366 423 365 423 329 424 365 424 327 424 327 424 365 424 364 424 327 425 364 425 325 425 325 426 364 426 363 426 325 427 363 427 323 427 323 428 363 428 362 428 323 429 362 429 321 429 321 430 362 430 361 430 321 431 361 431 319 431 319 431 361 431 360 431 319 432 360 432 317 432 317 433 360 433 359 433 317 434 359 434 315 434 315 435 359 435 358 435 315 436 358 436 313 436 313 436 358 436 357 436 313 437 357 437 311 437 311 437 357 437 356 437 311 438 356 438 309 438 309 438 356 438 355 438 309 439 355 439 307 439 307 439 355 439 354 439 307 440 354 440 305 440 305 440 354 440 353 440 305 441 353 441 268 441 268 441 353 441 352 441 268 442 352 442 270 442 270 443 352 443 351 443 270 444 351 444 272 444 272 445 351 445 350 445 272 446 350 446 274 446 274 446 350 446 349 446 274 447 349 447 276 447 276 448 349 448 348 448 276 449 348 449 278 449 278 450 348 450 347 450 278 451 347 451 280 451 280 451 347 451 346 451 280 452 346 452 282 452 282 453 346 453 345 453 282 454 345 454 284 454 284 455 345 455 344 455 284 456 344 456 286 456 286 456 344 456 343 456 286 457 343 457 288 457 288 457 343 457 342 457 288 458 342 458 290 458 290 458 342 458 341 458 290 459 341 459 292 459 292 459 341 459 340 459 292 460 340 460 294 460 294 460 340 460 339 460 294 461 339 461 296 461 296 462 339 462 338 462 296 463 338 463 298 463 298 464 338 464 337 464 298 465 337 465 300 465 300 466 337 466 406 466 300 467 406 467 302 467 302 468 406 468 405 468 302 469 405 469 304 469 304 469 405 469 404 469 304 470 404 470 303 470 303 471 404 471 403 471 303 472 403 472 301 472 301 473 403 473 402 473 301 474 402 474 299 474 299 474 402 474 401 474 299 475 401 475 297 475 297 475 401 475 400 475 297 476 400 476 295 476 295 477 400 477 399 477 295 478 399 478 293 478 293 479 399 479 398 479 293 480 398 480 291 480 291 480 398 480 397 480 291 481 397 481 289 481 289 481 397 481 396 481 289 482 396 482 287 482 287 483 396 483 395 483 287 484 395 484 285 484 285 485 395 485 394 485 285 486 394 486 283 486 283 487 394 487 393 487 283 488 393 488 281 488 281 488 393 488 392 488 281 489 392 489 279 489 279 489 392 489 391 489 279 490 391 490 277 490 277 491 391 491 390 491 277 492 390 492 275 492 275 493 390 493 389 493 275 494 389 494 273 494 273 494 389 494 388 494 273 495 388 495 271 495 271 495 388 495 387 495</p>
        </triangles>
        <triangles count="1" material="mat_1">
          <input semantic="VERTEX" source="#vert_0" offset="0"/>
          <input semantic="NORMAL" source="#norm_0" offset="1"/>
          <p>0 0 1 0 2 0</p>
        </triangles>
      </mesh>
    </geometry>
  </library_geometries>
  <library_visual_scenes>
    <visual_scene id="DefaultScene">
      <node id="node_3ddfc9ea_8f9c_493a_ad82_950a9ea3b329" type="NODE">
        <matrix>1 0 0 0 0 1 0 0 0 0 1 0 0 0 0 1</matrix>
        <node id="node_f1cdae73_a987_4663_ba38_fd59e4a6b85b" type="NODE">
          <matrix>1 0 0 0 0 1 0 0 0 0 1 0 0 0 0 1</matrix>
          <node id="node_f1cdae73_a987_4663_ba38_fd59e4a6b85b_mesh0" type="NODE">
            <matrix>1 0 0 0 0 1 0 0 0 0 1 0 0 0 0 1</matrix>
            <instance_geometry url="#geometry_45178561_d814_4e10_83a9_18077fb16ba7">
              <bind_material>
                <technique_common>
                  <instance_material symbol="mat_1" target="#mat_1"/>
                </technique_common>
              </bind_material>
            </instance_geometry>
          </node>
        </node>
      </node>
    </visual_scene>
  </library_visual_scenes>
  <scene>
    <instance_visual_scene url="#DefaultScene"/>
  </scene>
</COLLADA>
