<?xml version="1.0" encoding="UTF-8"?>
<COLLADA xmlns="http://www.collada.org/2005/11/COLLADASchema" version="1.4.1">
<!--
# File generated by ImageToStl.com - Free Image and 3D model conversion tools
-->
  <asset>
    <contributor>
      <author>ImageToStl.com</author>
      <authoring_tool>ImageToStl.com</authoring_tool>
    </contributor>
    <created>2026-03-06T09:44:19</created>
    <modified>2026-03-06T09:44:19</modified>
    <up_axis>Z_UP</up_axis>
  </asset>
  <library_effects>
    <effect id="effect_0">
        <profile_COMMON>
          <technique sid="common">
            <phong>
              <diffuse>
                <color>0.9098 0.67843 0.13725 1</color>
              </diffuse>
            </phong>
          </technique>
        </profile_COMMON>
    </effect>
    <effect id="effect_1">
        <profile_COMMON>
          <technique sid="common">
            <phong>
              <diffuse>
                <color>0.87843 0.65882 0.12549 1</color>
              </diffuse>
            </phong>
          </technique>
        </profile_COMMON>
    </effect>
  </library_effects>
  <library_materials>
    <material id="mat_0">
      <instance_effect url="#effect_0"/>
    </material>
    <material id="mat_1">
      <instance_effect url="#effect_1"/>
    </material>
  </library_materials>
  <library_geometries>
    <geometry id="geometry_12fe0e8b_f9f8_4816_9e86_e3504bfdb885">
      <mesh>
        <source id="pos_0">
          <float_array id="pos_0-array" count="552">-20.56800079 -42.66794968 28.89999962 -20.56800079 -26.5 28.89999962 -29.86800003 -42.66794968 28.89999962 -29.86800003 -26.5 28.89999962 -20.56800079 -44.40000153 27.89999962 -29.86800003 -44.40000153 27.89999962 -29.86800003 -26.5 26.5 -20.56800079 -26.5 26.5 -29.86800003 -37 26.5 -20.56800079 -37 26.5 28.89999962 -42.66794968 28.89999962 28.89999962 -26.5 28.89999962 19.60000038 -42.66794968 28.89999962 19.60000038 -26.5 28.89999962 28.89999962 -44.40000153 27.89999962 19.60000038 -44.40000153 27.89999962 19.60000038 -26.5 26.5 28.89999962 -26.5 26.5 19.60000038 -37 26.5 28.89999962 -37 26.5 8.5 -0.60000002 54 8.5 12.05086327 54 7.5 0.40000001 55 7.5 12.71749783 55 -8.5 -0.60000002 54 -7.5 0.40000001 55 -7.5 12.71749783 55 -8.5 12.05086327 54 -1.5 12.71749783 55 1.5 12.71749783 55 1.5 36.90000153 55 -1.5 36.90000153 55 8.5 5.85053873 44.69906616 2.5 12.05086327 54 2.5 5.85053873 44.69906616 8.5 -0.60000002 30 8.5 27.90019798 30 2.5 37.90000153 54 -2.5 37.90000153 54 -2.5 12.05086327 54 -2.5 22.34818459 49.44141388 -2.5 21.89525032 49.38178635 -2.5 21.47318459 49.20695877 -2.5 37.90000153 45.00042343 -2.5 31.240839 45.91559601 -2.5 30.81877327 46.09041977 -2.5 30.365839 46.15005112 -2.5 27.90019798 30 -2.5 31.240839 42.88450623 -2.5 31.6032753 43.16261292 -2.5 31.8813839 43.52505112 -2.5 5.85053873 44.69906616 -2.5 21.89525032 46.00104523 -2.5 22.34818459 45.94141388 -2.5 29.12840271 43.16261292 -2.5 28.85029411 43.52505112 -2.5 22.80111694 46.00104523 -2.5 28.67546844 43.94711685 -2.5 23.22318459 46.17586899 -2.5 28.615839 44.40005112 -2.5 23.58562088 46.45397949 -2.5 28.67546844 44.85298157 -2.5 23.86372757 46.81641388 -2.5 28.85029411 45.27505112 -2.5 24.03855324 47.23847961 -2.5 29.12840271 45.6374855 -2.5 24.09818459 47.69141388 -2.5 29.490839 45.91559601 -2.5 24.03855324 48.14434814 -2.5 29.91290665 46.09041977 -2.5 23.86372757 48.56641388 -2.5 23.58562088 48.92885208 -2.5 23.22318459 49.20695877 -2.5 22.80111694 49.38178635 -2.5 20.59818459 47.69141388 -2.5 20.65781403 47.23847961 -2.5 20.83263969 46.81641388 -2.5 21.11074638 46.45397949 -2.5 21.47318459 46.17586899 -2.5 21.11074638 48.92885208 -2.5 20.83263969 48.56641388 -2.5 20.65781403 48.14434814 -2.5 29.490839 42.88450623 -2.5 29.91290665 42.70967865 -2.5 30.365839 42.65005112 -2.5 30.81877327 42.70967865 -2.5 32.05620956 43.94711685 -2.5 32.11584091 44.40005112 -2.5 32.05620956 44.85298157 -2.5 31.8813839 45.27505112 -2.5 31.6032753 45.6374855 2.5 37.90000153 45.00042343 -8.5 37.90000153 30 8.5 37.90000153 30 -9.5 37.90000153 28.5 9.5 37.90000153 28.5 9.5 37.90000153 30 8.5 37.90000153 45.00042343 -9.5 37.90000153 30 -8.5 37.90000153 45.00042343 2.5 22.34818459 49.44141388 2.5 22.80111694 49.38178635 2.5 23.22318459 49.20695877 2.5 20.59818459 47.69141388 2.5 20.65781403 48.14434814 2.5 20.83263969 48.56641388 2.5 27.90019798 30 2.5 21.89525032 46.00104523 2.5 21.47318459 46.17586899 2.5 21.11074638 46.45397949 2.5 31.240839 42.88450623 2.5 30.81877327 42.70967865 2.5 30.365839 42.65005112 2.5 31.240839 45.91559601 2.5 31.6032753 45.6374855 2.5 31.8813839 45.27505112 2.5 28.67546844 44.85298157 2.5 23.58562088 46.45397949 2.5 28.615839 44.40005112 2.5 23.22318459 46.17586899 2.5 28.67546844 43.94711685 2.5 22.80111694 46.00104523 2.5 28.85029411 43.52505112 2.5 22.34818459 45.94141388 2.5 29.12840271 43.16261292 2.5 29.490839 42.88450623 2.5 29.91290665 42.70967865 2.5 23.86372757 46.81641388 2.5 28.85029411 45.27505112 2.5 24.03855324 47.23847961 2.5 29.12840271 45.6374855 2.5 24.09818459 47.69141388 2.5 29.490839 45.91559601 2.5 24.03855324 48.14434814 2.5 29.91290665 46.09041977 2.5 23.86372757 48.56641388 2.5 30.365839 46.15005112 2.5 23.58562088 48.92885208 2.5 30.81877327 46.09041977 2.5 32.05620956 44.85298157 2.5 32.11584091 44.40005112 2.5 32.05620956 43.94711685 2.5 31.8813839 43.52505112 2.5 31.6032753 43.16261292 2.5 21.11074638 48.92885208 2.5 21.47318459 49.20695877 2.5 21.89525032 49.38178635 2.5 20.83263969 46.81641388 2.5 20.65781403 47.23847961 -8.5 -0.60000002 30 -8.5 5.85053873 44.69906616 -8.5 27.90019798 30 -29.96800041 -26.5 27 -20.46800041 -26.5 27 -29.96800041 -26.5 28.89999962 -20.46800041 -26.5 28.89999962 -20.46800041 -36.5 27 -20.46800041 -38.40000153 28.89999962 -29.96800041 -36.5 27 -29.96800041 -38.40000153 28.89999962 19.5 -26.5 27 29 -26.5 27 19.5 -26.5 28.89999962 29 -26.5 28.89999962 29 -36.5 27 29 -38.40000153 28.89999962 19.5 -36.5 27 19.5 -38.40000153 28.89999962 -9.5 28.39999962 28.5 9.5 28.39999962 28.5 -9.5 39.40000153 27 -52.29999924 39.40000153 27 -9.5 39.40000153 30 -52.29999924 39.40000153 30 9.5 28.39999962 27 -9.5 28.39999962 27 9.5 39.40000153 30 9.5 39.40000153 27 52.29999924 39.40000153 30 52.29999924 39.40000153 27 52.29999924 -36.5 27 52.29999924 -39.5 30 -52.29999924 -39.5 30 -52.29999924 -36.5 27</float_array>
          <technique_common>
            <accessor source="#pos_0-array" count="552" stride="3">
              <param name="X" type="float"/>
              <param name="Y" type="float"/>
              <param name="Z" type="float"/>
            </accessor>
          </technique_common>
        </source>
        <source id="norm_0">
          <float_array id="norm_0-array" count="507">0 -0 1 0 -0.5 0.86603 0 -0.5 0.86603 0 1 0 0 1 0 -0 -0.18589 -0.98257 -0 -0.18589 -0.98257 -0 0 -1 1 0 -0 1 -0 -0 1 0 -0 -1 -0 0 0 0 1 0 -0.5 0.86603 -0 1 -0 0 1 -0 -0 -0.18589 -0.98257 -0 0 -1 1 0 -0 1 0 -0 1 0 -0 -1 -0 0 -1 -0 0 -1 -0 0 0.70711 -0 0.70711 0 -0.70711 0.70711 -0 -0.70711 0.70711 -0.70711 -0 0.70711 -0.70711 0 0.70711 -0 -0 1 -0 -0 1 -0 0.83206 -0.55468 0 0.83206 -0.55468 0 0.83206 -0.55468 0 0.83206 -0.55468 1 0 0 1 -0 0 1 0 0 -0 0.70711 0.70711 0 0.70711 0.70711 -0.70711 -0 0.70711 -0.70711 -0 0.70711 0.70711 -0 0.70711 -1 -0 -0 -1 0 -0 -1 -0 -0 -1 -0 -0 -1 0 -0 -1 -0 -0 -1 -0 -0 -1 -0 0 -1 -0 0 -1 0 -0 -1 -0 -0 -1 -0 -0 -1 -0 -0 -1 -0 0 -1 -0 -0 -1 -0 -0 -1 -0 -0 -1 -0 0 -1 0 0 -1 -0 0 -1 -0 -0 -1 -0 0 -1 -0 0 -1 -0 -0 -1 -0 -0 -1 -0 -0 -1 0 -0 -1 -0 -0 -1 0 -0 -1 0 -0 -1 0 0 -1 0 0 -1 0 -0 -1 -0 -0 -1 0 -0 -1 0 -0 -1 -0 -0 -1 0 0 -1 -0 -0 -1 0 -0 -1 -0 -0 -1 0 -0 -1 -0 0 -1 -0 -0 -1 -0 0 -1 -0 -0 -1 -0 -0 -1 -0 -0 -1 -0 -0 -0 1 0 -0 1 0 -0 1 0 -0 1 0 1 -0 0 -0 -1 -0 0 -1 -0 -1 -0 -0 -1 -0 -0 -1 0 -0 -0 0.83206 -0.55468 0 0.83206 -0.55468 0 0.83206 -0.55468 -0 -1 0 -1 -0 0 -1 -0 -0 1 -0 0 0 -0 -1 0 -1 0 0 0.99144 -0.13053 -0 0.99144 0.13053 -0 0.92388 0.38268 -0 0.79335 0.60876 -0 0.60876 0.79335 -0 0.60876 0.79335 -0 0.38268 0.92388 -0 0.38268 0.92388 -0 0.13053 0.99144 0 -0.13053 0.99144 0 -0.13053 0.99144 0 -0.38268 0.92388 0 -0.60876 0.79335 0 -0.60876 0.79335 0 -0.79335 0.60876 0 -0.92388 0.38268 0 -0.99144 0.13053 0 -0.99144 -0.13053 0 -0.92388 -0.38268 0 -0.79335 -0.60876 0 -0.60876 -0.79335 -0 -0.60876 -0.79335 -0 -0.38268 -0.92388 -0 -0.13053 -0.99144 0 -0.13053 -0.99144 0 0.13053 -0.99144 0 0.38268 -0.92388 0 0.38268 -0.92388 0 0.60876 -0.79335 0 0.60876 -0.79335 0 0.79335 -0.60876 0 0.92388 -0.38268 -0 0.55468 0.83206 -0 0.55468 0.83206 -0 -0.83206 0.55468 -0 -0.83206 0.55468 -1 -0 -0 0 0.55468 0.83206 0 0.55468 0.83206 0 -0.83206 0.55468 1 -0 0 1 0 0 1 0 -0 -1 -0 -0 -1 -0 0 0 -0.70711 -0.70711 0 -0.70711 -0.70711 -0 -0.70711 -0.70711 0 -0.70711 -0.70711 -0 -0.70711 -0.70711 1 0 0 1 0 0 0 -0 1 -0 0 1 0 0 1 0 0 1 -0 -0 1 -0 -0 1</float_array>
          <technique_common>
            <accessor source="#norm_0-array" count="507" stride="3">
              <param name="X" type="float"/>
              <param name="Y" type="float"/>
              <param name="Z" type="float"/>
            </accessor>
          </technique_common>
        </source>
        <vertices id="vert_0">
          <input semantic="POSITION" source="#pos_0"/>
        </vertices>
        <triangles count="363">
          <input semantic="VERTEX" source="#vert_0" offset="0"/>
          <input semantic="NORMAL" source="#norm_0" offset="1"/>
          <p>2 0 1 0 3 0 4 1 0 1 5 1 5 2 0 2 2 2 6 3 3 3 7 3 7 4 3 4 1 4 5 5 8 5 4 5 4 6 8 6 9 6 8 7 6 7 9 7 9 7 6 7 7 7 7 8 1 8 9 8 9 9 1 9 4 9 4 10 1 10 0 10 6 11 8 11 3 11 3 11 8 11 5 11 3 11 5 11 2 11 10 12 11 12 12 12 12 12 11 12 13 12 14 13 10 13 15 13 15 2 10 2 12 2 16 14 13 14 17 14 17 15 13 15 11 15 15 16 18 16 14 16 14 6 18 6 19 6 18 17 16 17 19 17 19 17 16 17 17 17 17 18 11 18 19 18 19 19 11 19 14 19 14 20 11 20 10 20 16 21 18 21 13 21 13 22 18 22 15 22 13 23 15 23 12 23 20 24 21 24 22 24 22 24 21 24 23 24 24 25 20 25 25 25 25 26 20 26 22 26 26 27 27 27 25 27 25 28 27 28 24 28 26 29 25 29 28 29 28 30 25 30 22 30 28 12 22 12 29 12 29 12 22 12 23 12 30 12 31 12 29 12 29 12 31 12 28 12 21 31 32 31 23 31 23 32 32 32 33 32 23 33 33 33 29 33 32 34 34 34 33 34 21 35 20 35 32 35 32 36 20 36 35 36 32 37 35 37 36 37 37 38 38 38 30 38 30 39 38 39 31 39 38 40 39 40 31 40 31 41 39 41 28 41 29 24 33 24 30 24 30 42 33 42 37 42 38 43 40 43 39 43 39 44 40 44 41 44 39 45 41 45 42 45 43 46 44 46 38 46 38 47 44 47 45 47 38 48 45 48 46 48 47 49 48 49 43 49 43 50 48 50 49 50 43 51 49 51 50 51 51 52 52 52 47 52 47 53 52 53 53 53 47 54 53 54 54 54 54 55 53 55 55 55 55 56 53 56 56 56 55 57 56 57 57 57 57 58 56 58 58 58 57 59 58 59 59 59 59 60 58 60 60 60 59 61 60 61 61 61 61 62 60 62 62 62 61 63 62 63 63 63 63 63 62 63 64 63 63 62 64 62 65 62 65 64 64 64 66 64 65 65 66 65 67 65 67 66 66 66 68 66 67 58 68 58 69 58 69 57 68 57 70 57 69 56 70 56 46 56 46 55 70 55 71 55 46 67 71 67 38 67 38 68 71 68 72 68 38 69 72 69 73 69 39 70 74 70 51 70 51 71 74 71 75 71 51 72 75 72 76 72 76 73 77 73 51 73 51 74 77 74 78 74 51 75 78 75 52 75 73 76 40 76 38 76 42 77 79 77 39 77 39 78 79 78 80 78 39 79 80 79 81 79 81 80 74 80 39 80 54 81 82 81 47 81 47 82 82 82 83 82 47 83 83 83 84 83 84 84 85 84 47 84 47 85 85 85 48 85 50 86 86 86 43 86 43 87 86 87 87 87 43 88 87 88 88 88 88 89 89 89 43 89 43 90 89 90 90 90 43 91 90 91 44 91 38 92 37 92 43 92 43 92 37 92 91 92 43 93 91 93 92 93 92 94 91 94 93 94 92 92 93 92 94 92 94 92 93 92 95 92 95 92 93 92 96 92 91 93 97 93 93 93 94 92 98 92 92 92 92 95 99 95 43 95 33 96 100 96 37 96 37 96 100 96 101 96 37 96 101 96 102 96 34 96 103 96 33 96 33 96 103 96 104 96 33 96 104 96 105 96 106 96 107 96 34 96 34 96 107 96 108 96 34 96 108 96 109 96 91 96 110 96 106 96 106 96 110 96 111 96 106 96 111 96 112 96 37 96 113 96 91 96 91 96 113 96 114 96 91 96 114 96 115 96 116 96 117 96 118 96 118 96 117 96 119 96 118 96 119 96 120 96 120 96 119 96 121 96 120 96 121 96 122 96 122 96 121 96 123 96 122 96 123 96 124 96 124 96 123 96 106 96 124 96 106 96 125 96 125 96 106 96 126 96 126 96 106 96 112 96 117 96 116 96 127 96 127 96 116 96 128 96 127 96 128 96 129 96 129 96 128 96 130 96 129 96 130 96 131 96 131 96 130 96 132 96 131 96 132 96 133 96 133 96 132 96 134 96 133 96 134 96 135 96 135 96 134 96 136 96 135 96 136 96 137 96 137 96 136 96 37 96 137 96 37 96 102 96 136 96 138 96 37 96 37 96 138 96 113 96 115 96 139 96 91 96 91 96 139 96 140 96 91 96 140 96 141 96 141 96 142 96 91 96 91 96 142 96 143 96 91 96 143 96 110 96 105 96 144 96 33 96 33 96 144 96 145 96 33 96 145 96 146 96 146 96 100 96 33 96 123 96 107 96 106 96 109 96 147 96 34 96 34 96 147 96 148 96 34 96 148 96 103 96 20 97 24 97 35 97 35 98 24 98 149 98 27 99 150 99 24 99 24 100 150 100 149 100 149 101 150 101 151 101 27 102 26 102 150 102 150 103 26 103 39 103 150 104 39 104 51 104 26 33 28 33 39 33 152 105 153 105 154 105 154 105 153 105 155 105 153 106 156 106 155 106 155 107 156 107 157 107 152 96 154 96 158 96 158 108 154 108 159 108 154 109 155 109 159 109 159 109 155 109 157 109 160 110 161 110 162 110 162 110 161 110 163 110 161 11 164 11 163 11 163 11 164 11 165 11 160 96 162 96 166 96 166 96 162 96 167 96 162 109 163 109 167 109 167 109 163 109 165 109 94 109 95 109 168 109 168 109 95 109 169 109 170 92 171 92 172 92 172 92 171 92 173 92 81 111 104 111 74 111 74 111 104 111 103 111 74 112 103 112 75 112 75 112 103 112 148 112 75 113 148 113 76 113 76 113 148 113 147 113 76 114 147 114 77 114 77 114 147 114 109 114 77 115 109 115 78 115 78 116 109 116 108 116 78 117 108 117 52 117 52 118 108 118 107 118 52 119 107 119 53 119 53 119 107 119 123 119 53 120 123 120 56 120 56 121 123 121 121 121 56 122 121 122 58 122 58 122 121 122 119 122 58 123 119 123 60 123 60 124 119 124 117 124 60 125 117 125 62 125 62 125 117 125 127 125 62 126 127 126 64 126 64 126 127 126 129 126 64 127 129 127 66 127 66 127 129 127 131 127 66 128 131 128 68 128 68 128 131 128 133 128 68 129 133 129 70 129 70 129 133 129 135 129 70 130 135 130 71 130 71 130 135 130 137 130 71 131 137 131 72 131 72 132 137 132 102 132 72 133 102 133 73 133 73 133 102 133 101 133 73 134 101 134 40 134 40 135 101 135 100 135 40 136 100 136 41 136 41 136 100 136 146 136 41 137 146 137 42 137 42 138 146 138 145 138 42 139 145 139 79 139 79 140 145 140 144 140 79 141 144 141 80 141 80 141 144 141 105 141 80 142 105 142 81 142 81 142 105 142 104 142 61 111 116 111 59 111 59 111 116 111 118 111 59 112 118 112 57 112 57 112 118 112 120 112 57 113 120 113 55 113 55 113 120 113 122 113 55 114 122 114 54 114 54 114 122 114 124 114 54 115 124 115 82 115 82 116 124 116 125 116 82 117 125 117 83 117 83 118 125 118 126 118 83 119 126 119 84 119 84 119 126 119 112 119 84 120 112 120 85 120 85 121 112 121 111 121 85 122 111 122 48 122 48 122 111 122 110 122 48 123 110 123 49 123 49 124 110 124 143 124 49 125 143 125 50 125 50 125 143 125 142 125 50 126 142 126 86 126 86 126 142 126 141 126 86 127 141 127 87 127 87 127 141 127 140 127 87 128 140 128 88 128 88 128 140 128 139 128 88 129 139 129 89 129 89 129 139 129 115 129 89 130 115 130 90 130 90 130 115 130 114 130 90 131 114 131 44 131 44 132 114 132 113 132 44 133 113 133 45 133 45 133 113 133 138 133 45 134 138 134 46 134 46 135 138 135 136 135 46 136 136 136 69 136 69 136 136 136 134 136 69 137 134 137 67 137 67 138 134 138 132 138 67 139 132 139 65 139 65 140 132 140 130 140 65 141 130 141 63 141 63 141 130 141 128 141 63 142 128 142 61 142 61 142 128 142 116 142 151 143 150 143 47 143 47 144 150 144 51 144 99 145 151 145 43 145 43 146 151 146 47 146 151 147 99 147 92 147 32 148 36 148 34 148 34 149 36 149 106 149 36 150 97 150 106 150 106 150 97 150 91 150 97 151 36 151 93 151 174 92 175 92 169 92 169 92 175 92 168 92 168 96 175 96 94 96 94 96 175 96 170 96 94 152 170 152 172 152 172 153 98 153 94 153 176 154 177 154 95 154 95 11 177 11 174 11 95 11 174 11 169 11 95 155 96 155 176 155 176 92 178 92 177 92 177 92 178 92 179 92 164 156 180 156 165 156 165 157 180 157 181 157 165 156 181 156 167 156 167 156 181 156 182 156 167 156 182 156 157 156 157 156 182 156 159 156 159 158 182 158 183 158 159 159 183 159 158 159 156 160 166 160 157 160 157 156 166 156 167 156 158 109 183 109 152 109 152 109 183 109 171 109 152 109 171 109 175 109 175 109 171 109 170 109 174 109 160 109 175 109 175 109 160 109 153 109 175 109 153 109 152 109 177 109 179 109 174 109 174 109 179 109 161 109 174 109 161 109 160 109 179 109 180 109 161 109 161 109 180 109 164 109 166 109 156 109 160 109 160 109 156 109 153 109 182 11 173 11 183 11 183 11 173 11 171 11 181 161 180 161 178 161 178 162 180 162 179 162 93 163 36 163 96 163 96 164 36 164 178 164 96 12 178 12 176 12 36 165 35 165 178 165 178 166 35 166 181 166 181 167 35 167 149 167 181 12 149 12 182 12 182 12 149 12 173 12 173 12 149 12 151 12 173 12 151 12 98 12 98 168 151 168 92 168 98 12 172 12 173 12</p>
        </triangles>
        <triangles count="1" material="mat_1">
          <input semantic="VERTEX" source="#vert_0" offset="0"/>
          <input semantic="NORMAL" source="#norm_0" offset="1"/>
          <p>0 0 1 0 2 0</p>
        </triangles>
      </mesh>
    </geometry>
  </library_geometries>
  <library_visual_scenes>
    <visual_scene id="DefaultScene">
      <node id="node_e06fa314_b435_4c39_8274_b4aaa5b56d89" type="NODE">
        <matrix>1 0 0 0 0 1 0 0 0 0 1 0 0 0 0 1</matrix>
        <node id="node_29aed9df_2a9e_4e9f_8cb4_de1db37fafca" type="NODE">
          <matrix>1 0 0 0 0 1 0 0 0 0 1 0 0 0 0 1</matrix>
          <node id="node_29aed9df_2a9e_4e9f_8cb4_de1db37fafca_mesh0" type="NODE">
            <matrix>1 0 0 0 0 1 0 0 0 0 1 0 0 0 0 1</matrix>
            <instance_geometry url="#geometry_12fe0e8b_f9f8_4816_9e86_e3504bfdb885">
              <bind_material>
                <technique_common>
                  <instance_material symbol="mat_1" target="#mat_1"/>
                </technique_common>
              </bind_material>
            </instance_geometry>
          </node>
        </node>
      </node>
    </visual_scene>
  </library_visual_scenes>
  <scene>
    <instance_visual_scene url="#DefaultScene"/>
  </scene>
</COLLADA>
